<svg width="444" height="121" viewBox="0 0 444 121" fill="none" xmlns="http://www.w3.org/2000/svg">
<path d="M41.2257 80.2012H19.6667C19.6667 80.2012 19.9219 86.3867 21.3251 90.7043C22.7283 95.0219 23.7558 98.4354 26.5767 102.589C34.805 114.706 44.8242 119.697 59.4678 120.002C71.9945 120.263 80.7445 115.829 89.0422 108.394C94.9026 103.142 99.9025 90.7192 100.098 84.0708C100.651 65.2758 100.374 21.8816 100.374 21.8816H78.5392C78.5392 21.8816 79.3684 60.0243 78.5392 84.0708C78.3867 88.4931 75.509 91.6876 72.1821 94.5738C68.1332 98.0864 63.8902 98.9962 59.4678 98.9962C55.0455 98.9962 48.6627 95.295 44.8188 90.7043C41.679 86.9545 41.2257 80.2012 41.2257 80.2012Z" fill="#67A1FE"/>
<path d="M167.814 16.3511L113.64 113.366L139.898 113.643L168.643 61.6801L197.388 113.643H221.987L167.814 16.3511Z" fill="url(#paint0_linear_220_17)"/>
<path d="M306.727 80.7554C306.727 80.7554 297.329 95.3433 279.917 94.0224C271.397 93.3762 265.897 90.7979 260.292 84.3486C254.963 78.2157 253.191 72.8471 253.382 64.7244C253.562 57.1086 255.358 52.2858 260.292 46.4823C266.455 39.2343 274.825 36.4687 284.339 36.532C296.224 36.6111 305.621 48.417 305.621 48.417L329.668 47.8642C329.668 47.8642 323.034 31.5569 313.084 25.1997C302.382 18.3626 295.38 14.7778 282.68 14.6967C269.263 14.611 260.407 17.4787 250.066 26.0289C240.859 33.6413 236.427 39.813 233.758 51.4574C230.718 64.7244 231.834 75.7149 234.587 82.6902C238.733 93.1933 243.709 99.8268 256.699 108.948C264.417 114.366 270.495 115.178 279.917 115.581C293.184 116.149 297.329 114.199 307.556 108.948C323.509 100.756 330.221 80.7554 330.221 80.7554H306.727Z" fill="url(#paint1_linear_220_17)"/>
<path d="M354.105 18.0095H376.217V65.5497L410.213 18.0095H436.195L402.198 66.3789L443.657 115.854H417.953L376.217 66.9317V115.854H354.105V18.0095Z" fill="#BD34FE"/>
<g filter="url(#filter0_d_220_17)">
<path d="M25.5589 65.5064H4C4 65.5064 4.25516 71.6919 5.65838 76.0095C7.06159 80.327 8.08907 83.7405 10.9099 87.8945C19.1382 100.012 29.1575 105.002 43.8011 105.307C56.3277 105.568 65.0777 101.134 73.3755 93.6988C79.2359 88.4473 84.2358 76.0244 84.4313 69.376C84.9841 50.581 84.7077 7.18677 84.7077 7.18677H62.8724C62.8724 7.18677 63.7016 45.3295 62.8724 69.376C62.7199 73.7983 59.8423 76.9928 56.5153 79.879C52.4664 83.3915 48.2234 84.3014 43.8011 84.3014C39.3787 84.3014 32.996 80.6002 29.1521 76.0095C26.0123 72.2597 25.5589 65.5064 25.5589 65.5064Z" fill="white"/>
<path d="M152.151 1.65625L97.9771 98.6714L124.235 98.9478L152.98 46.9853L181.725 98.9478H206.324L152.151 1.65625Z" fill="white"/>
<path d="M291.06 66.0606C291.06 66.0606 281.662 80.6485 264.25 79.3276C255.73 78.6814 250.23 76.1031 244.625 69.6537C239.296 63.5209 237.524 58.1523 237.715 50.0296C237.895 42.4137 239.691 37.591 244.625 31.7874C250.788 24.5394 259.158 21.7738 268.672 21.8372C280.557 21.9163 289.954 33.7222 289.954 33.7222L314.001 33.1694C314.001 33.1694 307.367 16.862 297.417 10.5049C286.715 3.66774 279.713 0.0829795 267.013 0.00185739C253.596 -0.0838556 244.74 2.78385 234.399 11.3341C225.192 18.9465 220.76 25.1182 218.091 36.7626C215.051 50.0296 216.167 61.02 218.921 67.9954C223.066 78.4984 228.042 85.132 241.032 94.253C248.75 99.6716 254.828 100.483 264.25 100.887C277.517 101.454 281.663 99.5046 291.889 94.253C307.842 86.0607 314.554 66.0606 314.554 66.0606H291.06Z" fill="white"/>
<path d="M338.442 3.3147H360.554V50.8549L394.551 3.3147H420.532L386.535 51.6841L427.995 101.159H402.29L360.554 52.2369V101.159H338.442V3.3147Z" fill="white"/>
</g>
<defs>
<filter id="filter0_d_220_17" x="0" y="0" width="431.995" height="113.318" filterUnits="userSpaceOnUse" color-interpolation-filters="sRGB">
<feFlood flood-opacity="0" result="BackgroundImageFix"/>
<feColorMatrix in="SourceAlpha" type="matrix" values="0 0 0 0 0 0 0 0 0 0 0 0 0 0 0 0 0 0 127 0" result="hardAlpha"/>
<feOffset dy="4"/>
<feGaussianBlur stdDeviation="2"/>
<feComposite in2="hardAlpha" operator="out"/>
<feColorMatrix type="matrix" values="0 0 0 0 0 0 0 0 0 0 0 0 0 0 0 0 0 0 0.25 0"/>
<feBlend mode="normal" in2="BackgroundImageFix" result="effect1_dropShadow_220_17"/>
<feBlend mode="normal" in="SourceGraphic" in2="effect1_dropShadow_220_17" result="shape"/>
</filter>
<linearGradient id="paint0_linear_220_17" x1="194.5" y1="64.9999" x2="221.987" y2="64.9968" gradientUnits="userSpaceOnUse">
<stop stop-color="#67A1FE"/>
<stop offset="1" stop-color="#BD34FE"/>
</linearGradient>
<linearGradient id="paint1_linear_220_17" x1="168.5" y1="65" x2="330.221" y2="65.1855" gradientUnits="userSpaceOnUse">
<stop stop-color="#67A1FE"/>
<stop offset="1" stop-color="#BD34FE"/>
</linearGradient>
</defs>
</svg>
